<svg xmlns="http://www.w3.org/2000/svg" width="100%" height="100%" preserveAspectRatio="xMidYMid meet" viewBox="0.000027179939934285358 -6.985329150666075e-7 145.50738525390625 147" overflow="visible"><defs id="SvgjsDefs1048"><linearGradient id="SvgjsLinearGradientfuHdo96h27" gradientUnits="userSpaceOnUse" x1="12.21135711669923" y1="87.94181156158447" x2="89.25557327270508" y2="10.897595405578612"><stop id="SvgjsStop1051" stop-color="#fa85c7" offset="0.05"></stop><stop id="SvgjsStop1052" stop-color="#f50a8f" offset="0.95"></stop></linearGradient></defs><g id="SvgjsG1049" transform="scale(0.3882716624876958)" opacity="1"><g id="SvgjsG1053" class="dNqupCZy5a" transform="translate(-60.66384320123206, -52.31862827837223) scale(4.889124380282077)" light-content="false" non-strokable="false" fill="#ffffff"><path d="M88.588 49.717c-.02.357.393.229.471.283-.121-.604-.579-.266-.471-.283zm-1.46-5.726l.184.074-.542-.769zm-1.187-5.253c-.544.692.602 1.853.599 2.852l-.12.189.669.297c-.385-1.128-1.121-2.492-1.148-3.338zm.446-3.274c-.194.276-.444-.518.16.686.005-.074.015-.099.022-.144a5.652 5.652 0 0 1-.182-.542zm.182.542c.223.549.084-.446 0 0zm-1.207-2.443l.562.599c.08-.213-.188-.859.032-.675-.473-.67-.546-.445-.594.076zm-.787-.433l.267.312c.032-.093.007-.199-.267-.312zm.834.981l-.567-.669c-.055.15-.261.257.24.315-.222.027.035.09.327.354zm.107.476c.055.448.144 1.004-.366.392.605 1.319 1.028.93.366-.392zm-.372 4.118l-.006.29c-.004.145-.026.294-.026.294l.349.391c-.159-.2-.096-1.081-.317-.975zm-1.771-9.577c-.154.04-.207.438-.343.589l.445.397c-.063-.304-.272-.832-.102-.986zm-.344.589l-.662-.586c.367.661.544.714.662.586zm.776 3.64l1.089 1.001-1.21-1.234zM81.519 26.4l.577.185-.95-.383zm-1.387-1.693c.468.084.041-.689.437-.518-.445-.415-.979-.632-1.453-.818.42.275.749.686 1.016 1.336zm-1.771-1.68c.213.13.473.23.755.344a2.535 2.535 0 0 0-.755-.344zm3.268 4.865c.036-.105.157-.344-.048-.789l-.147.518.195.271z"></path><path d="M81.431 27.638l.004-.017-.411-.591.407.608zm.247.322l-.049-.068c-.015.05-.015.073.049.068zm1.462 3.284c-.464-.306-1.204-1.031-1.013-.014.433.149.319-.438 1.013.014zm-1.656-2.651c.021-.014.391.803.391.803.086-.076.14-.303.367-.159 0 0-.737-.661-.758-.644zm-.372-.271l.372.271-.167-.284zm-2-3.874c-.402-.166-.698-.469-1.043-.803.285.437.606.86.945 1.231.149-.036.482-.027.098-.428zm1.145 1.54l-.071-.054c.004.065.02.106.071.054zm-5.598-5.6l.006.111.061-.045zm4.352 4.604c.195.338.428.44.677.52a6.815 6.815 0 0 1-.674-.636c-.067.016-.102.038-.003.116zm-1.715-2.787l.311.641c-.028-.248-.177-.675-.311-.641zm2.904 3.55l.05.035c-.006-.159-.031-.119-.05-.035zm0 0c-.169-.121-.343-.18-.512-.244.169.164.335.311.498.423a.629.629 0 0 1 .014-.179zm-8.351-4.068c.274-.263 1.326-.026 1.637.884.792.319 1.274-1.004 1.179-2.072-.136.123-.216.21-1.067-.124.143.321 1.138 1.634.367 1.419-.968-.6-.632-.684-.932-1.199.065.664-1.589-.292-1.817.443l.927.374c-.056.099-.444.033-.294.275zm4.039-.025l.303.209c-.261-.33-.373-.647-.58-1.253-.583-.266-.769-.237-.885-.165l1.295 1.249-.133-.04z"></path><path d="M77.385 22.99c-.485.075-1.27-.346-1.201.334.767.702.76.273 1.329.599-1.226-1.186.505.198-.155-.888.281.199.503.409.711.61a8.883 8.883 0 0 1-.463-.799l.008.048.006.006-.005.003c.012.093.005.134-.03.051-.007-.001-.023-.015-.031-.021a.428.428 0 0 1-.168.056c-.274-.432.026-.137.168-.056.02-.011.043-.015.061-.03l-.001-.008c.031-.036-1.423-1.023-1.423-1.023.223.297.593.571 1.194 1.118zm3.49 7.963c.006-.063.033-.078.058-.097-.101-.063-.152-.078-.058.097zm-.131-.715c.113.07.31.063.475.42.066.357-.176.107-.287.197.217.137.691.542.486-.2l-.111-.069c-.218-.645-.224-1.687-.115-1.62a3.287 3.287 0 0 0-.448 1.272zm-1.577-3.641s-.237-.259-.516-.481l-.549-.448.19.764.148-.17c.438.66.526.37.727.335zm-4.494-6.485l.435-.221c.011-.019-1.066-.022-1.066-.022l.631.243zm-1.539-1.09l.293-.274-.543-.108zM20.952 67.197l.289.259a1.622 1.622 0 0 0-.289-.259zm-1.253-2.377l-.204.026c.151.066.244.076.204-.026zm9.979-47.663c-.722.006-1.643-.101-1.332.23l.403.262a2.06 2.06 0 0 1 .929-.492zM14.64 42.905l.154-.141-.309-.464c.049.183.078.385.155.605zm1.702.734l-.385.67c.122-.146.249-.361.385-.67zM31.16 77.485l.295-.054.302-.07c-.548-.367-.428-.029-.597.124zm24.32-65.596a5.302 5.302 0 0 0-1.287-.459c.614.344 1.069.791 1.287.459zM16.369 68.517c.203.183.336.234.417.18-.202-.19-.353-.279-.417-.18zm36.279-57.189c.091.048.182.075.275.116.395-.043.798-.111 1.269-.014-.451-.252-.999-.365-1.544-.102zm25.286 57.514c.037-.022.068-.057.106-.074-.044-.043-.073.002-.106.074zm9.76-13.774c.002.174-.04.452-.075.715.05-.123.08-.339.075-.715zM66.747 14.937c.374.149.078-.015 0 0zm.94 2.359c-.096.007-.182.035-.238.119a.371.371 0 0 1 .238-.119zm-18.928-3.335h-.032c.113.079.094.064.032 0zm18.444 1.415a2.966 2.966 0 0 0-.404-.338c.06.066.182.172.404.338zm.019-.219l.297.19c.078-.042.058-.102-.297-.19z"></path><path d="M66.233 14.716c.21.093.394.204.566.322-.058-.061-.078-.097-.052-.101l-.514-.221zM54.572 84.517c.025.01.054.014.082.029.334-.233.18-.181-.082-.029zM24.994 26.796c.008-.015.005-.029.012-.043l-.047.028.035.015z"></path><path d="M24.387 27.944c-.047-.749.215-.94.573-1.164l-1.209-.529.312.854.324.839z"></path><path d="M24.838 72.309l-.292-.899c1.193.354 1.513 1.037 1.388.086-.529.398-1.169-.159-1.694-.809-.525-.65-1.054-1.296-1.642-.95l-.114-.627c.088.139.169.115.256.252-.141-1.253-1.298-.116-1.915-1.483-.178-.494-.192-.895.127-.682l-.882-.802c-.142-.3.101-.338.249-.046l-.152-.224-.289-.518-.423-.755.041-.006c-.297-.128-.841-.497-1.091-.692-.016-.482.229.143.333-.03 0 0-.735-.737-.714-.749.096-.255.289-.223.485-.053.215.163.44.46.561.769.424-.682.261-.814-.02-1.049-.253-.241-.622-.596-.579-1.631l.466.776c.523-.812.029-1.356.144-2.424-.164.273-.456 2.26-1.129 1.411 0-.311-.099-.678-.536-1.13.46-.148.214-.638.018-1.291l.63-.122c-.358-.652-.661-.519-1.049-.873-.146-.814.292-1.076.683-1.345-.091-1.297-.646 1.043-.995-.465a3.72 3.72 0 0 0-.192-1.495c-.153-.477-.422-.97-.619-1.62.183-.79.397.104.566-.187l-.543-.647c.004-.169.163-.123.243-.1-.227-.567-.641-.011-.861-.927-.349-.115-.148-.603.111-1.184.276-.585.545-1.254.174-1.843.195-.268.385.158.636.086-.447-1.576-.348-1.342-.842-2.7l.581-1.024c-.595.721-1.003-.379-1.318-1.405-.272.248-.511.466-.632.619l-.053-.784c-.019-.392.007-.779.007-.779.148-.157.324.043.524.338a3.608 3.608 0 0 0-.081-.301c.365-.472.654-.111.909.33l-.519.435c.325.443.698.853 1.078.847-.059-.106-.094-.297-.099-.501.089.113.173.19.243.16.079-.034-.058-.213-.15-.474l.779-.165-.257-.137.895-1.69c-.09-.368-.207-.738-.315-1.118a15.897 15.897 0 0 1-.219-1.168c-.103-.815-.165-1.758.138-2.837.242.701.735.44 1.29.714-.835.288-.316 1.657-.822 2.629.263-.517.498-.299.545-.131l.112-2.045c.45.233.485-.249.914-.614-1.085-.055.029-1.593.106-2.463.318.112.541.444.047 1.282 1.145-.606-.481-1.821.665-2.425-.118.21-.231.296-.131.461.033-.628.954-1.687 1.032-1.254l-.118.207c.231-.323.502-.741.77-1.197.286-.445.617-.897.874-1.352.53-.897.85-1.765.62-2.117.094.059.646.81.729.997 0 0-.039-.256-.059-.62l-.08-1.373c-.047-1.012-.051-2.071-.051-2.071.361.689 2.251 1.193 1.673 2.446.34-.195.692-.486 1.092-1.198-.262.09-1.216-.31-1.005-.604 1.293-.076.814-.151 2.159-.437-.388.142-.84-.996-.348-1.394.04.195.774.823.689 1.062l.196-.939c.111-.462.255-.906.255-.906-.184.39.544.782 1.007.835-.26-.082 1.049-.758 1.302-1.088l-.663.171c1.439-.896.494-2.281 2.039-3.169-.069.313.299 1.492 1.103 1.167.03-.34.041-1.207.266-2.065.222-.856.624-1.783 1.27-2.34l.418.165.487-.442c.244-.223.509-.404.509-.404-.215.511-.603 1.474-1.01 2.388-.406.924-.824 1.818-1.138 2.374.689-.055.341.264 1.175-.173.435.134-.247.638-.483.77l2.027-.754c-.182-.285.121-.619.439-.945.331-.292.681-.564.538-.811l-.314.23c-.191.13-.435.323-.665.543l-.926.834c-.189-.281-.087-.86.269-1.452a2.936 2.936 0 0 1 1.773-1.369c.478.11.136 1.225.254 1.42.104-.283 1.25-.928 1.438-.823l-.507.569c.448-.03.706-.362 1.01-.66.304-.289.672-.489 1.265-.317.369-.05 1.253.572 1.217.17-.736-.602-1.475-2.863-1.193-3.53.074.008.623.056 1.206.138.58.061 1.219.286 1.465.424.714.5-.663 1.551-.046 1.979-.013-.184.277-.457.403-.55.409.097-.06.585.749.377.036-.694 1.693-.201.308-.63.795-.298.882-.04 1.843-.124-.358-.423.754-1.537 1.625-1.777-.044.176.159.392.254.49.437-.007.823.005 1.181.024.358.044.688.114 1.013.171.65.119 1.28.23 2.085.273.137.166.885.42.529.685.237-.09.471-.285.961-.227.861.728-1.09-.075-.461.739.104-.384 1.31-.353 2.048-.49-.111-.636-1.602-.363-2.314-.223.077-.84 1.417-1.531 3.246-1.645 1.422.047.481.658.746.579 1.243.395 1.87.176 2.448.004.575-.174 1.108-.32 2.047.371.643.807-.316 1.022-.261 1.455-.556-.091-.924-.329-1.257-.548-.339-.199-.632-.409-1.003-.494l.832.477c-.396.083-1.144.03-1.495-.221.567.571 4.123 1.298 5.7 2.576.384-.014 1.009.079.845-.24l-.594-.203c-.344-.647 1.323-.028.688-.559.45.047.948.07 1.46.176.256.053.516.126.771.235.244.13.485.295.716.506l-.112.649c.07-.166-.494-.729-.876-.737.577.025 1.154 1.669 2.041 1.267l-.505-.804c.883.201 2.228.164 2.98 1.024-.058-.794-.235-.098-.48-1.145.096 1.089-2.415-1.516-1.965-.157-.277-1.103-.983-1.063-1.613-2.143-.064.194.16.507-.639.01a1.033 1.033 0 0 1-.265.07l-.05-.041.036.044c-.05.01-.056.014.014.015.16.177.274.349.288.481-.627.212-1.929-.431-2.468-.422-.45-.323.297-.115.117-.441l-.404.006-.413.037c.11-.437-1.095-1.198.228-.991l-1.099-.425c-.565-.469-1.44-.914-2.059-.909-.516-.235-1.498.126-.934-.092l-1.854-.189.009-.113c-.868-.291-1.838-.203-2.799-.268a8.596 8.596 0 0 1-2.939-.663c-.621.081-1.253.188-2.269.011l-.194-.398c-.783.084-2.39-.299-2.712.104-.228-.25-.587-.377-1.02-.427-.433-.06-.937-.026-1.447.094-1.027.205-2.092.529-2.803.546l.045.506c-.946.142-1.798.557-2.887 1.033l.19.414c-.879.546-2.549.474-4.049 1.067.038-.197.438-.297.744-.298-.538-.073-1.035.024-1.499.207-.453.208-.861.529-1.262.839-.792.645-1.556 1.225-2.47 1.357a1.366 1.366 0 0 1-.898.539.274.274 0 0 0 .079-.076c-.04.019-.097.052-.155.087-.203.033-.418.059-.639.109a2.26 2.26 0 0 0 .558-.058c-.28.181-.683.491-1.043.842l-.444-.293-.091.071c-.518.109-.207.393.215.56a1.927 1.927 0 0 0-.367.61c-.763-.4-.87.976-1.795.633-.011.261-.46.692-.861 1.158-.368.507-.684 1.05-.496 1.454-.086-.072-.226-.016-.038-.197-.461.288-.929.583-1.12 1.081l-.597-.282-.149.693-.103.721c-.744.264-1.113.347-.968-.512-.633 1.78-.763 1.228-1.176 2.785l-.263-.308c-.305.432-.382 1.419-.829 1.471-1.409.437-3.337 4.698-5.146 7.198.666-.029.38.228.06.569-.302.349-.67.78-.269.999-.317.064-.611.412-.663-.139-.266 1.559-1.278 2.073-.781 3.347-.311.098-.304-.435-.502-.327.026.14.106.549-.094.664-.198.113-.166-.284-.218-.561-.363 1.591.427 1.94 1.175 2.228-.281.339-.436.611-.47.879-.01.272.094.54.309.866-.297.221-.637.635-.581-.346-.113.527-.905 3.279-.239 3.398-.171.155-.087.758-.02.906-.1 1.218-.163 1.326-.162 2.527l.12-.331c.726.478.169.987.308 1.949l-.08-.024c-.223 1.114-.144 1.355-.075 1.584.095.23.065.457-.063 1.575l.459-.174c1.054.06-.318 1.981.274 3.185l.196-.503c.432.593-.914 2.175-.872 2.93-.048.175-.201-.202-.319-.399-.116 1.99.668.078 1.155 1.378-.25.345-.933-.069-.709.855-.05.265.449.832.933 1.49.504.653.911 1.427.919 2.122.117-.361.239-.708.694-.213.513.814.237 2.857 1.422 3.231.002.142-.033.216-.087.252.575.541 1.57 1.906 2.172 2.035-.511.75.38 1.573 1.186 2.298.788.747 1.626 1.299 1.048 1.791l1.614 1.653-.153.064c.95 1.145 1.646 1.181 2.252 1.268.18.304-.097.245-.172.285 1.36 1.699 1.678 1.72 3.534 2.189l-.14.515c.277.031.773.665 1.545 1.286.765.62 1.694 1.425 2.792 1.612-.045.041-.129.107-.314.096 1.218.24 2.315 1.235 3.42 1.855 1.102.609 2.11 1.016 2.793.305 0 0 .396.046.808.022l.811-.02c-1.886-.631.501-.68-.203-1.17.759.086 1.782 1.02.84.874l-.119-.127c-.582.811 2.304.961 2.133 1.527 3.896.714 7.79 1.301 11.571 1.003l-.253-.331-.25-.345c.002.027 1.284-.139 1.284-.139.357.117.534.498-.397.609.544.337 1.504-.581 1.496-.74 1.849.016-.564.95-.014.883l.752-.171-.186-.058c.558-.415.565-.649 1.647-.908.716-.032.454.349.732.307.011.052.109.052.423-.086l1.624-.355-.8-.389c.627-.446 1.487-.371.577-.793.67.337 2.13-.13 3.516-.627 1.357-.57 2.575-1.305 2.959-1.301a4.65 4.65 0 0 1 .573-.545 6.85 6.85 0 0 1 .609-.502c.43-.312.912-.588 1.452-.887-.327.058-.819-.402.112-.876.193.65.711.558 1.284.25.575-.306 1.247-.743 1.891-.623-.506-.02.085-.512.605-.993.519-.487.899-1.034.168-.966.726-.511.364.347 1.074.129.6-.936 1.592-1.584 2.485-2.453.912-.842 1.992-1.656 2.68-2.811-.116-.139-.59.047-.461-.563l1.543-.596c.23-.489-.508-.934.483-1.415-.194.034-.483.081-.35-.246 1.741-1.933 2.856-4.384 3.708-6.874.409-1.257.897-2.483 1.265-3.753.21-.627.446-1.249.721-1.867.282-.616.482-1.253.797-1.876-.446.656-.405.174-.336-.365-.134.338-.428-.074-.674-.042l.492-1.032.339-.72c.093-.198.132-.333.132-.333-.637-.456.077-2.361-.545-2.612l.08.691c-.701-.924-1.721 1.173-2.668.947.2.255.213.537.14.838-.091.299-.297.613-.481.943-.374.664-.706 1.371-.226 2.256-.243.302-.259-.349-.505-.209.367.467.305.951-.089 1.763l-.074-.12c-.276 1.203-.503 2.061-.976 2.868l-.693 1.287c-.25.463-.495.987-.878 1.563l.521.009c-.316.51-.505.559-.732.756.353.921.76-1.481 1.214-.599-.616.167-1.072 1.103-1.529 2.01-.474.896-1.072 1.694-1.657 1.638-.473.767.604.061.127.835l-.374.045.2.406c-.356.485-.882.485-1.087.367.11-.097.186-.364.26-.498-.743.405-1.189 1.783-1.438 1.929l.661-.58c-.32.526-.661 1.086-1.084 1.598l-1.353 1.508-.667.766c-.241.233-.476.469-.701.709-.45.48-.862.974-1.209 1.494l.28.047c-1.155 1.516-1.321.716-2.808 2.101l.029-.088c-.184.444-.603.805-1.092 1.076.295-.485-1.09.067-.672-.526-1.472 1.397-.633.831-1.405 2.198l-.451-.195c-.256.496-.212.671-1.105 1.208.624-.654-.825-.229-.161-1.016a3.293 3.293 0 0 0-1.351.395 6.958 6.958 0 0 0-.942.556c-.544.366-.988.647-1.629.252-.593 1.31 1.915-.096 1.475.3.559.152-.504 1.001-1.186 1.142-.661.249-1.52-.921-3.132-.47.164-.037.157-.116.32-.152-.672-.124-1.114.712-1.972.379-.32.676-.999.116-1.001.916l1.525-.417c-.827.334-1.54 1.38-3.084 1.162.099-.176.512-.452.794-.614-.455-.179-.802.307-1.274.083.05-.754 1.871-.449 2.706-1.173-.496-.264-1.669.835-1.324-.086-.257.591-.68.621-1.153.627-.482-.037-1.012-.115-1.561.331l.048-.477c-.174.083-.538.326-.873.331l.572-.645c-.899.565-1.762-.333-2.622-.133.908.046 1.011.184.983.369-.028.19-.194.432.201.584-2.324.568-1.294-1.286-3.796-1.189.339-.027 1.252.351.7.55-.479-.096-1.089-.377-1.345-.676-1.658-.155.19.523-.553.705-.486-.66-.852.108-1.636.176l.083-.475c-.927-.275-1.084-.145-1.245.092-.153.212-.288.419-1.101.017l.876-.465-.92-.059.318-.485c-1.04.128-1.345.025-2.19-.463.105.4-.389.788-1.215.502-.457-.472.466-.318-.705-.672.371-.186.776-.441 1.119.157.103-.13.352-.192.454-.321-.471-.524-1.43-.603-1.841-.747.15.073.327.165.398.263l-.943.006-.927-.078c-.175-.286.086-.321.338-.358-.339-.105-.654-.011-1.146-.202.294-.294.445-.67 1.172-.524l-1.67-.32c-.027-.193-.533-.786-.274-.818-.632-.675-2.3-.476-3.146-1.412-.093.025-.236.009-.475-.101-.432-.38-.777-.815-1.187-1.201a4.867 4.867 0 0 0-.683-.535 3.376 3.376 0 0 0-.857-.466l-.093-1.034c-.888-.59.174 1.353-1.323.354-1.093-.694.067-.739-.1-1.188-.655-.199-1.936-.537-2.284-1.765.356.195.478.483.757.712zm-6.885-11.108c.184.209.651.574.448.849-.616-.076-.449-.387-.448-.849zm-1.918-20.067c.105.231-.047.503-.31.795.023-.251.111-.523.31-.795zm46.518-27.499c-.014.003-.024.005-.037.011-.548-.4-.356-.25.037-.011zm1.188.657c.15-.016.166-.082.137-.164-.132.081-.417-.014-.727-.164.046.151.177.292.59.328zm-4.623 72.665l-.28-.058c.53-.28.403-.118.28.058z"></path><path d="M16.146 43.549a.481.481 0 0 1-.274.062c.064.116.156.135.274-.062zM31.05 77.505l.028.028a.208.208 0 0 0 .081-.048l-.109.02zm13.042-61.157c-.255-.032-.407-.097-.515-.174.008.117.138.199.515.174zm26.413.392l-.811-.346c.373.198.447.367.588.543.043-.106-.015-.333.223-.197zm4.001 6.775c.128.036.19.164.317.198l.13-.185c-.386-.331-.767-.433-.447-.013zm-4.18-5.008c-.173.39.377.498.876.806-.029-.02-.058-.037-.083-.062.466-.367-.147-.594-.793-.744zm.993.876c.155.092.309.194.439.315.188-.143-.149-.171-.439-.315zm-5.895-4.712c.216.219.372-.397.453-.175.499-.348-1.988-.235-.453.175zm4.568 5.197l.102-.524-.494.172zm-3.717-2.545l.759.52c.027-.08.154-.073.301-.044-.5-.26-1.014-.618-1.06-.476z"></path><path d="M67.334 17.799c.257.142.493.291.676.3-.141-.074-.435-.25-.676-.3zm1.522 1.555l-.174-.228-.527-.363zm-11.835-5.298l-1.013-.01c-.128.154.122.299.498.287.256-.083.635-.091.515-.277zm2.567 2.038c-.224-.165-.212-.277-.313-.473l-.19.592.503-.119zm-2.754-.534c-.132.154-1.455.28-.26.421.127-.166 1.097-.123.26-.421zm-14.525-.615l.24-.07-.246-.988zm-10.607 7.056c1.057-.354-.116-.664.89-.918.097-.341-.824.209-.708-.105-.436.562-.808.619-.182 1.023zm.182-1.023c.07-.09.142-.19.212-.309a1.171 1.171 0 0 0-.212.309zm56.623 31.233l.253-.795-.368.504zm-.679-1.553l.658-.177-.564-.481c.02.178.059.525-.094.658zM18.61 58.975l-.163-.008c-.136.149-.108.308-.055.628l.218-.62zm3.339 8.641l-.072-.144-.339.572zm5.437 5.571c-.226-.217-.565-.4-.756-.655.516.447.314 1.229.756.655z"></path></g><g id="SvgjsG1054" class="text" transform="translate(186.3883765473237, 211.95044949986894) scale(1)" light-content="false" fill="#ffffff"><path d="M-110.19 -9.18C-110.19 -6.62 -111.13 -4.43 -113.01 -2.61C-114.89 -0.79 -117.13 0.12 -119.73 0.12C-123.33 0.12 -126.24 -0.9 -128.46 -2.94C-130.68 -4.98 -131.79 -7.36 -131.79 -10.08C-131.79 -11.52 -131.61 -12.74 -131.25 -13.74L-131.43 -14.04C-131.87 -14.56 -132.87 -14.82 -134.43 -14.82C-135.31 -14.82 -136.07 -14.35 -136.71 -13.41C-137.35 -12.47 -137.67 -11.18 -137.67 -9.54C-137.67 -6.02 -135.98 -3.09 -132.6 -0.75C-129.22 1.59 -125.24 2.76 -120.66 2.76C-116.08 2.76 -112.27 1.62 -109.23 -0.66C-106.19 -2.94 -104.67 -6.22 -104.67 -10.5C-104.67 -12.94 -105.12 -15.02 -106.02 -16.74C-106.92 -18.46 -108.09 -19.79 -109.53 -20.73C-110.97 -21.67 -112.56 -22.47 -114.3 -23.13C-116.04 -23.79 -117.78 -24.4 -119.52 -24.96C-121.26 -25.52 -122.85 -26.16 -124.29 -26.88C-125.73 -27.6 -126.9 -28.61 -127.8 -29.91C-128.7 -31.21 -129.15 -32.84 -129.15 -34.8C-129.15 -36.76 -128.41 -38.42 -126.93 -39.78C-125.45 -41.14 -123.44 -41.82 -120.9 -41.82C-118.36 -41.82 -116.13 -41.17 -114.21 -39.87C-112.29 -38.57 -111.33 -36.78 -111.33 -34.5C-111.33 -33.02 -111.53 -32.02 -111.93 -31.5L-111.75 -31.2C-111.31 -30.6 -110.31 -30.3 -108.75 -30.3C-107.91 -30.3 -107.18 -30.69 -106.56 -31.47C-105.94 -32.25 -105.63 -33.44 -105.63 -35.04C-105.63 -37.36 -106.91 -39.5 -109.47 -41.46C-112.03 -43.42 -115.46 -44.4 -119.76 -44.4C-124.06 -44.4 -127.58 -43.34 -130.32 -41.22C-133.06 -39.1 -134.43 -36.18 -134.43 -32.46C-134.43 -30.3 -133.98 -28.46 -133.08 -26.94C-132.18 -25.42 -131.02 -24.23 -129.6 -23.37C-128.18 -22.51 -126.61 -21.77 -124.89 -21.15C-123.17 -20.53 -121.45 -19.92 -119.73 -19.32C-118.01 -18.72 -116.44 -18.04 -115.02 -17.28C-113.6 -16.52 -112.44 -15.46 -111.54 -14.1C-110.64 -12.74 -110.19 -11.1 -110.19 -9.18Z M-81.39 -23.58C-83.63 -25.94 -86.52 -27.12 -90.06 -27.12C-93.6 -27.12 -96.46 -25.93 -98.64 -23.55C-100.82 -21.17 -101.91 -17.83 -101.91 -13.53C-101.91 -9.23 -100.74 -5.87 -98.4 -3.45C-96.06 -1.03 -93.13 0.18 -89.61 0.18C-86.09 0.18 -83.28 -1.16 -81.18 -3.84C-79.08 -6.52 -78.03 -9.89 -78.03 -13.95C-78.03 -18.01 -79.15 -21.22 -81.39 -23.58ZM-90.03 -24.78C-87.59 -24.78 -85.93 -23.95 -85.05 -22.29C-84.17 -20.63 -83.73 -17.72 -83.73 -13.56C-83.73 -12.48 -83.77 -11.18 -83.85 -9.66C-86.61 -10.42 -88.99 -11.97 -90.99 -14.31C-92.99 -16.65 -93.99 -19.1 -93.99 -21.66C-93.99 -22.66 -93.6 -23.43 -92.82 -23.97C-92.04 -24.51 -91.11 -24.78 -90.03 -24.78ZM-96.21 -13.56C-96.21 -15.12 -96.19 -16.24 -96.15 -16.92C-95.15 -14.72 -93.56 -12.72 -91.38 -10.92C-89.2 -9.12 -86.81 -7.94 -84.21 -7.38C-84.53 -5.54 -85.12 -4.21 -85.98 -3.39C-86.84 -2.57 -88.07 -2.16 -89.67 -2.16C-91.99 -2.16 -93.66 -3.04 -94.68 -4.8C-95.7 -6.56 -96.21 -9.48 -96.21 -13.56Z M-48.75 -12.3C-49.31 -12.3 -49.61 -12.18 -49.65 -11.94C-49.65 -8.82 -50.59 -6.41 -52.47 -4.71C-54.35 -3.01 -56.67 -2.16 -59.43 -2.16C-62.19 -2.16 -64.34 -3.04 -65.88 -4.8C-67.42 -6.56 -68.19 -9.41 -68.19 -13.35C-68.19 -17.29 -67.78 -20.18 -66.96 -22.02C-66.14 -23.86 -64.79 -24.78 -62.91 -24.78C-61.83 -24.78 -60.91 -24.32 -60.15 -23.4C-59.39 -22.48 -59.01 -21.46 -59.01 -20.34C-59.01 -19.22 -59.13 -18.36 -59.37 -17.76C-59.05 -17.28 -58.37 -17.04 -57.33 -17.04C-56.77 -17.04 -56.19 -17.34 -55.59 -17.94C-54.99 -18.54 -54.69 -19.34 -54.69 -20.34C-54.69 -22.18 -55.27 -23.77 -56.43 -25.11C-57.59 -26.45 -59.43 -27.12 -61.95 -27.12C-65.43 -27.12 -68.29 -25.89 -70.53 -23.43C-72.77 -20.97 -73.89 -17.55 -73.89 -13.17C-73.89 -8.79 -72.62 -5.47 -70.08 -3.21C-67.54 -0.95 -64.03 0.18 -59.55 0.18C-57.51 0.18 -55.68 -0.18 -54.06 -0.9C-52.44 -1.62 -51.18 -2.54 -50.28 -3.66C-49.38 -4.78 -48.69 -5.92 -48.21 -7.08C-47.73 -8.24 -47.49 -9.4 -47.49 -10.56C-47.49 -11.72 -47.91 -12.3 -48.75 -12.3Z M-50.19 -35.52C-50.19 -34.52 -49.85 -33.68 -49.17 -33C-48.49 -32.32 -47.65 -31.98 -46.65 -31.98C-45.65 -31.98 -44.8 -32.32 -44.1 -33C-43.4 -33.68 -43.05 -34.52 -43.05 -35.52C-43.05 -36.52 -43.4 -37.37 -44.1 -38.07C-44.8 -38.77 -45.65 -39.12 -46.65 -39.12C-47.65 -39.12 -48.49 -38.77 -49.17 -38.07C-49.85 -37.37 -50.19 -36.52 -50.19 -35.52ZM-48.51 -26.19C-49.11 -25.57 -49.41 -24.66 -49.41 -23.46L-49.41 -10.86C-49.41 -7.34 -48.62 -4.62 -47.04 -2.7C-45.46 -0.78 -43.05 0.18 -39.81 0.18C-37.21 0.18 -35.07 -0.92 -33.39 -3.12C-31.71 -5.32 -30.87 -7.96 -30.87 -11.04C-30.87 -13.16 -31.23 -14.22 -31.95 -14.22C-32.47 -14.22 -32.77 -14.1 -32.85 -13.86C-32.85 -9.74 -33.51 -6.76 -34.83 -4.92C-36.15 -3.08 -37.57 -2.16 -39.09 -2.16C-40.61 -2.16 -41.81 -2.74 -42.69 -3.9C-43.57 -5.06 -44.01 -6.78 -44.01 -9.06L-44.01 -26.28C-44.57 -26.84 -45.31 -27.12 -46.23 -27.12C-47.15 -27.12 -47.91 -26.81 -48.51 -26.19Z M-14.91 -25.38C-16.07 -26.54 -18.03 -27.12 -20.79 -27.12C-24.39 -27.12 -27.28 -26.02 -29.46 -23.82C-31.64 -21.62 -32.73 -18.2 -32.73 -13.56C-32.73 -4.4 -29.23 0.18 -22.23 0.18C-20.55 0.18 -19.05 -0.3 -17.73 -1.26C-16.41 -2.22 -15.37 -3.52 -14.61 -5.16C-13.29 -1.6 -10.61 0.18 -6.57 0.18C-3.93 0.18 -1.88 -0.84 -0.42 -2.88C1.04 -4.92 1.77 -7.64 1.77 -11.04C1.77 -13.16 1.41 -14.22 0.69 -14.22C0.13 -14.22 -0.17 -14.1 -0.21 -13.86C-0.21 -6.06 -2.09 -2.16 -5.85 -2.16C-7.09 -2.16 -8.07 -2.74 -8.79 -3.9C-9.51 -5.06 -9.87 -6.78 -9.87 -9.06L-9.87 -26.28C-10.43 -26.84 -11.28 -27.12 -12.42 -27.12C-13.56 -27.12 -14.39 -26.54 -14.91 -25.38ZM-24.27 -2.85C-24.99 -3.31 -25.63 -4.42 -26.19 -6.18C-26.75 -7.94 -27.03 -10.4 -27.03 -13.56C-27.03 -18.36 -26.37 -21.48 -25.05 -22.92C-24.41 -23.68 -23.73 -24.18 -23.01 -24.42C-22.29 -24.66 -21.32 -24.78 -20.1 -24.78C-18.88 -24.78 -17.78 -24.2 -16.8 -23.04C-15.82 -21.88 -15.33 -20.36 -15.33 -18.48L-15.33 -10.26C-15.33 -7.86 -16.04 -5.91 -17.46 -4.41C-18.88 -2.91 -20.19 -2.16 -21.39 -2.16C-22.59 -2.16 -23.55 -2.39 -24.27 -2.85Z M17.55 -14.22C17.03 -14.22 16.73 -14.1 16.65 -13.86C16.65 -9.74 15.99 -6.76 14.67 -4.92C13.35 -3.08 11.93 -2.16 10.41 -2.16C8.89 -2.16 7.69 -2.74 6.81 -3.9C5.93 -5.06 5.49 -6.78 5.49 -9.06L5.49 -25.14C7.53 -26.34 9.34 -28.16 10.92 -30.6C12.5 -33.04 13.29 -36.28 13.29 -40.32C13.29 -45.68 11.31 -48.36 7.35 -48.36C4.63 -48.36 2.73 -47.16 1.65 -44.76C0.57 -42.36 0.03 -38.58 0.03 -33.42L0.03 -10.86C0.03 -7.34 0.83 -4.62 2.43 -2.7C4.03 -0.78 6.45 0.18 9.69 0.18C12.29 0.18 14.43 -0.92 16.11 -3.12C17.79 -5.32 18.63 -7.96 18.63 -11.04C18.63 -13.16 18.27 -14.22 17.55 -14.22ZM10.71 -40.26C10.71 -34.38 8.97 -30.18 5.49 -27.66C5.49 -36.02 5.67 -41.18 6.03 -43.14C6.23 -44.42 6.46 -45.22 6.72 -45.54C6.98 -45.86 7.35 -46.02 7.83 -46.02C9.75 -46.02 10.71 -44.1 10.71 -40.26Z M44.31 -31.5C44.31 -34.82 44.8 -37.13 45.78 -38.43C46.76 -39.73 48.06 -40.38 49.68 -40.38C51.3 -40.38 52.58 -39.68 53.52 -38.28C54.46 -36.88 54.93 -35.02 54.93 -32.7L54.93 -9.48C54.93 -2.76 53.51 0.6 50.67 0.6C49.35 0.6 48.26 0.18 47.4 -0.66C46.54 -1.5 46.11 -2.75 46.11 -4.41C46.11 -6.07 46.27 -7.32 46.59 -8.16C46.35 -8.64 46.05 -8.99 45.69 -9.21C45.33 -9.43 44.91 -9.54 44.43 -9.54C42.43 -9.54 41.43 -8 41.43 -4.92C41.43 -2.52 42.23 -0.59 43.83 0.87C45.43 2.33 47.82 3.06 51 3.06C54.18 3.06 56.56 1.61 58.14 -1.29C59.72 -4.19 60.51 -8.12 60.51 -13.08L60.51 -20.76C60.51 -24.56 60.89 -27.94 61.65 -30.9C62.09 -32.74 62.69 -34.32 63.45 -35.64C64.21 -36.96 65.26 -38.07 66.6 -38.97C67.94 -39.87 69.51 -40.32 71.31 -40.32C75.95 -40.32 78.27 -35.6 78.27 -26.16L78.27 -12.78C78.27 -8.34 79 -4.89 80.46 -2.43C81.92 0.03 84.49 1.26 88.17 1.26C90.81 1.26 92.93 0.22 94.53 -1.86C96.13 -3.94 96.93 -6.66 96.93 -10.02C96.93 -11.54 96.63 -12.52 96.03 -12.96C95.83 -13.08 95.54 -13.14 95.16 -13.14C94.78 -13.14 94.57 -13.02 94.53 -12.78C94.53 -5.26 92.65 -1.5 88.89 -1.5C87.37 -1.5 86.14 -2.2 85.2 -3.6C84.26 -5 83.79 -6.86 83.79 -9.18L83.79 -26.16C83.79 -31.36 82.75 -35.51 80.67 -38.61C78.59 -41.71 75.47 -43.28 71.31 -43.32C68.63 -43.32 66.29 -42.52 64.29 -40.92C62.29 -39.32 60.85 -37.18 59.97 -34.5C58.97 -40.26 55.83 -43.14 50.55 -43.14C47.35 -43.14 44.79 -42.15 42.87 -40.17C40.95 -38.19 39.99 -35.62 39.99 -32.46C39.99 -31.1 40.28 -30.12 40.86 -29.52C41.44 -28.92 42.15 -28.62 42.99 -28.62C43.83 -28.62 44.43 -28.86 44.79 -29.34C44.47 -30.06 44.31 -30.78 44.31 -31.5Z M119.61 -13.5C119.05 -13.5 118.75 -13.38 118.71 -13.14C118.71 -9.54 117.72 -6.81 115.74 -4.95C113.76 -3.09 111.54 -2.16 109.08 -2.16C106.62 -2.16 104.64 -2.81 103.14 -4.11C101.64 -5.41 100.71 -7.34 100.35 -9.9C104.23 -9.9 107.42 -10.89 109.92 -12.87C112.42 -14.85 113.67 -17.34 113.67 -20.34C113.67 -22.18 113.09 -23.77 111.93 -25.11C110.77 -26.45 108.93 -27.12 106.41 -27.12C102.93 -27.12 100.07 -25.89 97.83 -23.43C95.59 -20.97 94.47 -17.55 94.47 -13.17C94.47 -8.79 95.74 -5.47 98.28 -3.21C100.82 -0.95 104.19 0.18 108.39 0.18C112.59 0.18 115.72 -1.04 117.78 -3.48C119.84 -5.92 120.87 -8.62 120.87 -11.58C120.87 -12.86 120.45 -13.5 119.61 -13.5ZM100.17 -12.66C100.17 -17.06 100.58 -20.18 101.4 -22.02C102.22 -23.86 103.57 -24.78 105.45 -24.78C106.69 -24.78 107.65 -24.37 108.33 -23.55C109.01 -22.73 109.35 -21.54 109.35 -19.98C109.35 -17.54 108.44 -15.7 106.62 -14.46C104.8 -13.22 102.65 -12.44 100.17 -12.12Z M119.73 -35.07C119.13 -34.45 118.83 -33.54 118.83 -32.34L118.83 -10.32C118.83 -6.84 119.81 -4.22 121.77 -2.46C123.73 -0.7 126.39 0.18 129.75 0.18C133.11 0.18 135.6 -0.88 137.22 -3C138.84 -5.12 139.65 -7.8 139.65 -11.04C139.65 -13.16 139.29 -14.22 138.57 -14.22C138.05 -14.22 137.75 -14.1 137.67 -13.86C137.67 -9.74 137.09 -6.76 135.93 -4.92C134.77 -3.08 132.95 -2.16 130.47 -2.16C128.83 -2.16 127.38 -2.76 126.12 -3.96C124.86 -5.16 124.23 -6.86 124.23 -9.06L124.23 -24.18L134.49 -24.18C134.49 -24.94 134.36 -25.48 134.1 -25.8C133.84 -26.12 133.29 -26.28 132.45 -26.28L124.23 -26.28L124.23 -35.16C123.67 -35.72 122.93 -36 122.01 -36C121.09 -36 120.33 -35.69 119.73 -35.07Z"></path></g></g></svg>