<svg id="SvgjsSvg1037" width="100%" height="100%" xmlns="http://www.w3.org/2000/svg" version="1.1" xlink="http://www.w3.org/1999/xlink" xmlns:svgjs="http://svgjs.com/svgjs" preserveAspectRatio="xMidYMid meet" viewBox="-2.50807232760053e-7 0.0000043242248466413 300 71.09577178955078" overflow="visible"><defs id="SvgjsDefs1038"><linearGradient id="SvgjsLinearGradientyOemzmQeY" gradientUnits="userSpaceOnUse" x1="3.3136310577392996" y1="96.68711471557614" x2="96.68537712097167" y2="3.3153686523437527"><stop id="SvgjsStop1041" stop-color="#e1b1d5" offset="0.05"></stop><stop id="SvgjsStop1042" stop-color="#be55a4" offset="0.95"></stop></linearGradient></defs><g id="SvgjsG1039" transform="scale(1.0519618241529411)" opacity="1"><g id="SvgjsG1043" class="EniM4HTJou" transform="translate(-1.8416363734712384, -3.0416421615627867) scale(0.7366545493884954)" light-content="false" non-strokable="false" fill="url(#SvgjsLinearGradientyOemzmQeY)"><path d="M86.672 4.129H13.328C7.355 4.129 2.5 8.989 2.5 14.957v50.848c0 5.973 4.86 10.828 10.828 10.828h23.855l10.664 18.012a2.5 2.5 0 0 0 4.305 0l10.664-18.012 23.855.004c5.972 0 10.828-4.86 10.828-10.828V14.957c0-5.969-4.86-10.828-10.828-10.828zM92.5 65.805a5.833 5.833 0 0 1-5.828 5.828l-25.281.004a2.5 2.5 0 0 0-2.152 1.227L50 88.466 40.762 72.86a2.498 2.498 0 0 0-2.152-1.227H13.329A5.833 5.833 0 0 1 7.5 65.806V14.958a5.833 5.833 0 0 1 5.828-5.828h73.34a5.833 5.833 0 0 1 5.828 5.828zM59.133 18.809c-3.484 0-6.629 1.172-9.133 3.36-2.504-2.188-5.644-3.36-9.132-3.36-8.711 0-15.531 7.098-15.527 16.188-.06 2.863.753 17.75 22.395 29.43a4.765 4.765 0 0 0 4.531 0c21.523-11.613 22.445-26.398 22.398-29.38v-.081c0-9.059-6.825-16.156-15.531-16.156zM50 58.829C31.61 48.653 31.31 36.485 31.336 35.114v-.149c0-5.695 4.188-10.156 9.532-10.156 3.488 0 5.546 1.934 6.656 3.555A2.999 2.999 0 0 0 50 29.67a3.01 3.01 0 0 0 2.477-1.305c1.11-1.62 3.168-3.555 6.656-3.555 5.344 0 9.531 4.461 9.531 10.125v.184c.024 1.367-.273 13.535-18.664 23.711z"></path></g><g id="SvgjsG1044" class="text" transform="translate(186.54144912083606, 54.4319983215332) scale(1)" light-content="false" fill="#be55a4"><path d="M-92.91 0.24C-91.33 0.4 -89.88 0.48 -88.56 0.48C-86.12 0.48 -84.22 0.09 -82.86 -0.69C-81.5 -1.47 -80.53 -2.76 -79.95 -4.56C-79.37 -6.36 -79.08 -8.88 -79.08 -12.12C-79.08 -15.52 -79.28 -17.76 -79.68 -18.84C-80.12 -20.2 -80.75 -21.16 -81.57 -21.72C-82.39 -22.28 -83.48 -22.7 -84.84 -22.98L-89.7 -24C-90.54 -24.2 -91.15 -24.46 -91.53 -24.78C-91.91 -25.1 -92.16 -25.65 -92.28 -26.43C-92.4 -27.21 -92.46 -28.46 -92.46 -30.18C-92.46 -31.5 -92.4 -32.57 -92.28 -33.39C-92.16 -34.21 -91.9 -34.9 -91.5 -35.46C-91.14 -36.02 -90.56 -36.44 -89.76 -36.72C-88.96 -37 -87.84 -37.14 -86.4 -37.14C-85.24 -37.14 -84.09 -37.08 -82.95 -36.96C-81.81 -36.84 -80.96 -36.72 -80.4 -36.6L-80.4 -40.86C-80.92 -41.06 -81.88 -41.26 -83.28 -41.46C-84.68 -41.66 -86.18 -41.76 -87.78 -41.76C-91.22 -41.76 -93.71 -40.89 -95.25 -39.15C-96.79 -37.41 -97.56 -34.4 -97.56 -30.12C-97.56 -26.76 -97.31 -24.27 -96.81 -22.65C-96.31 -21.03 -95.22 -20.06 -93.54 -19.74L-88.08 -18.6C-86.76 -18.36 -85.85 -18.06 -85.35 -17.7C-84.85 -17.34 -84.53 -16.73 -84.39 -15.87C-84.25 -15.01 -84.18 -13.48 -84.18 -11.28C-84.18 -9.68 -84.25 -8.43 -84.39 -7.53C-84.53 -6.63 -84.82 -5.94 -85.26 -5.46C-85.74 -4.98 -86.35 -4.64 -87.09 -4.44C-87.83 -4.24 -88.8 -4.14 -90 -4.14C-91.48 -4.14 -93.78 -4.34 -96.9 -4.74L-96.9 -0.42C-95.82 -0.14 -94.49 0.08 -92.91 0.24Z M-71.79 -1.2C-70.37 -0.08 -68.02 0.48 -64.74 0.48C-61.42 0.48 -59.06 -0.08 -57.66 -1.2C-56.26 -2.32 -55.36 -4.25 -54.96 -6.99C-54.56 -9.73 -54.36 -14.28 -54.36 -20.64C-54.36 -27 -54.56 -31.55 -54.96 -34.29C-55.36 -37.03 -56.26 -38.96 -57.66 -40.08C-59.06 -41.2 -61.42 -41.76 -64.74 -41.76C-68.02 -41.76 -70.37 -41.2 -71.79 -40.08C-73.21 -38.96 -74.12 -37.02 -74.52 -34.26C-74.92 -31.5 -75.12 -26.96 -75.12 -20.64C-75.12 -14.32 -74.92 -9.78 -74.52 -7.02C-74.12 -4.26 -73.21 -2.32 -71.79 -1.2ZM-61.17 -5.01C-61.83 -4.43 -63.02 -4.14 -64.74 -4.14C-66.46 -4.14 -67.65 -4.43 -68.31 -5.01C-68.97 -5.59 -69.42 -6.97 -69.66 -9.15C-69.9 -11.33 -70.02 -15.16 -70.02 -20.64C-70.02 -26.12 -69.9 -29.95 -69.66 -32.13C-69.42 -34.31 -68.97 -35.69 -68.31 -36.27C-67.65 -36.85 -66.46 -37.14 -64.74 -37.14C-63.02 -37.14 -61.83 -36.85 -61.17 -36.27C-60.51 -35.69 -60.06 -34.31 -59.82 -32.13C-59.58 -29.95 -59.46 -26.12 -59.46 -20.64C-59.46 -15.16 -59.58 -11.33 -59.82 -9.15C-60.06 -6.97 -60.51 -5.59 -61.17 -5.01Z M-36.6 0.24C-35.6 0.08 -34.76 -0.12 -34.08 -0.36L-34.08 -4.62C-35.6 -4.3 -37.08 -4.14 -38.52 -4.14C-40.48 -4.14 -41.85 -4.49 -42.63 -5.19C-43.41 -5.89 -43.92 -7.31 -44.16 -9.45C-44.4 -11.59 -44.52 -15.32 -44.52 -20.64C-44.52 -25.96 -44.4 -29.69 -44.16 -31.83C-43.92 -33.97 -43.41 -35.39 -42.63 -36.09C-41.85 -36.79 -40.48 -37.14 -38.52 -37.14C-37.4 -37.14 -35.96 -36.98 -34.2 -36.66L-34.2 -40.92C-34.76 -41.16 -35.53 -41.36 -36.51 -41.52C-37.49 -41.68 -38.46 -41.76 -39.42 -41.76C-42.42 -41.76 -44.62 -41.19 -46.02 -40.05C-47.42 -38.91 -48.37 -36.9 -48.87 -34.02C-49.37 -31.14 -49.62 -26.68 -49.62 -20.64C-49.62 -14.52 -49.38 -10.03 -48.9 -7.17C-48.42 -4.31 -47.48 -2.32 -46.08 -1.2C-44.68 -0.08 -42.46 0.48 -39.42 0.48C-38.54 0.48 -37.6 0.4 -36.6 0.24Z M-29.4 0L-24.3 0L-24.3 -41.28L-29.4 -41.28Z M-2.1 0L3.06 0L-4.92 -41.28L-12.18 -41.28L-20.16 0L-15.06 0L-13.02 -10.74L-4.2 -10.74ZM-8.46 -35.22L-4.8 -15.24L-12.42 -15.24L-8.76 -35.22Z M6.96 0L21.84 0L21.84 -4.74L12.12 -4.74L12.12 -41.28L6.96 -41.28Z M50.04 0L54.78 0L54.78 -41.28L49.98 -41.28L49.98 -13.68L49.68 -13.68L39.9 -41.28L34.86 -41.28L34.86 0L39.72 0L39.72 -28.5L39.96 -28.5Z M61.08 0L77.1 0L77.1 -4.62L66.24 -4.62L66.24 -18.54L75.72 -18.54L75.72 -23.16L66.24 -23.16L66.24 -36.66L77.1 -36.66L77.1 -41.28L61.08 -41.28Z M86.46 0L91.56 0L91.56 -36.54L98.64 -36.54L98.64 -41.28L79.44 -41.28L79.44 -36.54L86.46 -36.54Z"></path></g></g></svg>