<svg xmlns="http://www.w3.org/2000/svg" version="1.1" xlink="http://www.w3.org/1999/xlink" xmlns:svgjs="http://svgjs.com/svgjs" width="100%" height="100%" viewBox="1.998999834060669 1.9989981651306152 96.0009994506836 96.00100708007812"><g fill="#e25a99"><path d="M85.656 43.789h9.52A2.826 2.826 0 0 0 98 40.965V4.824A2.826 2.826 0 0 0 95.176 2H59.033a2.826 2.826 0 0 0-2.824 2.824v21.96L50 33l-6.211-6.211V4.824a2.81 2.81 0 0 0-.829-1.996 2.81 2.81 0 0 0-1.996-.829H4.824a2.826 2.826 0 0 0-2.825 2.825v36.14a2.826 2.826 0 0 0 2.824 2.825h9.52a16.375 16.375 0 0 0 3.664 5.316l7.105 7.106H4.823A2.826 2.826 0 0 0 2 59.035v36.141A2.826 2.826 0 0 0 4.823 98h36.141a2.81 2.81 0 0 0 1.996-.828 2.81 2.81 0 0 0 .829-1.996V74.887l4.21 4.215a2.826 2.826 0 0 0 4 0l4.215-4.215v20.289A2.825 2.825 0 0 0 59.034 98h36.142A2.826 2.826 0 0 0 98 95.176V59.035a2.826 2.826 0 0 0-2.824-2.824h-20.29l7.106-7.102a16.35 16.35 0 0 0 3.664-5.32zM38.14 92.351H7.648V61.859h23.113l7.383 7.383zM61.859 7.648h30.492v30.5h-5.41c.023-.379.035-.762.035-1.152v-.004a16.563 16.563 0 0 0-4.984-11.934 21.86 21.86 0 0 0-1.211-1.102c-.13-.105-.262-.199-.391-.3a16.65 16.65 0 0 0-.898-.665 11.871 11.871 0 0 0-.465-.304 17.918 17.918 0 0 0-1.371-.797c-.348-.18-.7-.344-1.059-.5-.113-.051-.226-.106-.34-.153a16.71 16.71 0 0 0-1.441-.515c-.09-.028-.176-.047-.266-.07-.398-.114-.8-.215-1.199-.301-.16-.032-.324-.059-.488-.09a18.04 18.04 0 0 0-1.012-.149 17.81 17.81 0 0 0-1.55-.102c-.165 0-.329-.01-.493-.007-.422.004-.844.024-1.266.063-.078.007-.156.007-.234.015-.5.051-.992.125-1.484.219-.145.027-.282.066-.426.102-.352.078-.7.16-1.043.261-.176.051-.352.11-.527.164a20.411 20.411 0 0 0-1.457.543c-.325.14-.641.293-.957.45-.145.074-.293.14-.438.218-.043.024-.086.04-.129.063zM7.648 38.14V7.648H38.14v14.398a15.56 15.56 0 0 0-1.29-.613c-.1-.043-.198-.086-.3-.125-.45-.18-.898-.348-1.371-.489-.07-.023-.145-.039-.219-.058-.433-.125-.875-.23-1.324-.32a5.157 5.157 0 0 0-.262-.055c-.492-.09-.992-.16-1.5-.211a7.129 7.129 0 0 0-.328-.027 19.654 19.654 0 0 0-1.605-.075A16.224 16.224 0 0 0 18 25.062a17.959 17.959 0 0 0-1.34 1.46c-.336.41-.649.833-.942 1.27-.05.074-.093.152-.144.227-.262.41-.508.828-.73 1.257-.036.067-.075.133-.11.2a16.13 16.13 0 0 0-.75 1.746c-.183.5-.348 1-.48 1.52-.008.023-.012.05-.016.073a16.5 16.5 0 0 0-.3 1.516c-.016.102-.036.207-.052.313a17.38 17.38 0 0 0-.14 1.566c0 .102 0 .191-.004.289-.012.5 0 .992.027 1.492v.14zm84.703 23.719v30.492H61.859V69.238l7.383-7.383zM49.999 73.113l-28-28a9.789 9.789 0 0 1-2.86-4.781c-.011-.059-.027-.113-.042-.168a10.902 10.902 0 0 1 2.851-11.066c.04-.035.074-.074.114-.113a10.563 10.563 0 0 1 7.878-3.266 12.43 12.43 0 0 1 2.891.328 10.237 10.237 0 0 1 5.23 3L48 38.985a2.906 2.906 0 0 0 3.992 0l9.938-9.938h.004a11.235 11.235 0 0 1 16.062 0 10.888 10.888 0 0 1 3.332 7.941 11.349 11.349 0 0 1-.434 3.2.926.926 0 0 0-.035.14h-.004A9.793 9.793 0 0 1 78 45.113z"></path></g></svg>