<svg width="18" height="16" viewBox="0 0 18 16" fill="none" xmlns="http://www.w3.org/2000/svg">
<path d="M4.67475 3.88934L5.0085 2.40534C5.07649 2.10297 5.26028 1.8309 5.52858 1.63544C5.79688 1.43998 6.1331 1.33322 6.48 1.33334H11.52C11.8669 1.33322 12.2031 1.43998 12.4714 1.63544C12.7397 1.8309 12.9235 2.10297 12.9915 2.40534L13.3253 3.88934C13.3776 4.12187 13.5032 4.33641 13.6874 4.508C13.8715 4.67959 14.1067 4.8012 14.3655 4.85868C14.9752 4.99426 15.5165 5.30713 15.9033 5.74754C16.29 6.18796 16.5001 6.73064 16.5 7.28934V12C16.5 12.7073 16.1839 13.3855 15.6213 13.8856C15.0587 14.3857 14.2957 14.6667 13.5 14.6667H4.5C3.70435 14.6667 2.94129 14.3857 2.37868 13.8856C1.81607 13.3855 1.5 12.7073 1.5 12V7.28934C1.49994 6.73064 1.70998 6.18796 2.09673 5.74754C2.48348 5.30713 3.02475 4.99426 3.6345 4.85868C3.89333 4.8012 4.1285 4.67959 4.31265 4.508C4.49679 4.33641 4.62236 4.12187 4.67475 3.88934V3.88934Z" stroke="#555555" stroke-width="2" stroke-linecap="round" stroke-linejoin="round"/>
<path d="M9 12C10.6569 12 12 10.8061 12 9.33334C12 7.86058 10.6569 6.66667 9 6.66667C7.34315 6.66667 6 7.86058 6 9.33334C6 10.8061 7.34315 12 9 12Z" stroke="#555555" stroke-width="2" stroke-linecap="round" stroke-linejoin="round"/>
<path d="M8.25 4H9.75" stroke="#555555" stroke-width="2" stroke-linecap="round" stroke-linejoin="round"/>
</svg>
