<svg width="15" height="15" viewBox="0 0 15 15" fill="none" xmlns="http://www.w3.org/2000/svg">
<path d="M15 15H14.5C12.4448 14.9999 10.4586 14.259 8.90547 12.9131L8.37963 12.4573C8.08728 12.4857 7.79373 12.5 7.5 12.5C5.51478 12.5 3.64422 11.8615 2.23288 10.7022C0.792969 9.51947 0 7.93828 0 6.25C0 4.56172 0.792969 2.98053 2.23288 1.79778C3.64422 0.638469 5.51478 0 7.5 0C9.48522 0 11.3558 0.638469 12.7671 1.79778C14.207 2.98053 15 4.56172 15 6.25C14.9993 7.14744 14.7728 8.03029 14.3413 8.81722C13.9668 9.50259 13.4681 10.1123 12.8706 10.6152C13.3171 11.7507 13.992 12.7825 14.8535 13.6465L15 13.7929V15ZM8.70175 11.4132L9.56041 12.1574C10.7447 13.1837 12.2192 13.8157 13.7792 13.9655C12.9185 13.0034 12.2538 11.8827 11.8224 10.666L11.685 10.2766L11.9728 10.0557C13.2801 9.05244 14 7.70091 14 6.25C14 3.35512 11.0841 1 7.5 1C3.91591 1 1 3.35512 1 6.25C1 9.14487 3.91591 11.5 7.5 11.5C7.82799 11.5 8.15568 11.48 8.48125 11.4402L8.70175 11.4132Z" fill="#555555"/>
</svg>
