<svg width="13" height="11" viewBox="0 0 13 11" fill="none" xmlns="http://www.w3.org/2000/svg">
<path d="M12.6855 2.25423C12.4838 1.8131 12.1929 1.41336 11.8292 1.07737C11.4653 0.740387 11.0362 0.472587 10.5652 0.288539C10.0769 0.0969345 9.5531 -0.0011396 9.0243 9.99031e-06C8.28243 9.99031e-06 7.55862 0.191889 6.92961 0.554327C6.77913 0.641028 6.63618 0.736256 6.50074 0.840013C6.36531 0.736256 6.22236 0.641028 6.07188 0.554327C5.44287 0.191889 4.71906 9.99031e-06 3.97719 9.99031e-06C3.44299 9.99031e-06 2.92533 0.0966601 2.43627 0.288539C1.96377 0.473311 1.53791 0.739099 1.17224 1.07737C0.808074 1.41298 0.517167 1.81282 0.316008 2.25423C0.106841 2.71332 0 3.20083 0 3.70256C0 4.17586 0.102327 4.66906 0.305475 5.17079C0.475517 5.59008 0.719295 6.02501 1.03079 6.4642C1.52436 7.15922 2.20303 7.8841 3.04572 8.61893C4.44218 9.837 5.82509 10.6784 5.88378 10.7125L6.24041 10.9286C6.39842 11.0238 6.60157 11.0238 6.75957 10.9286L7.11621 10.7125C7.1749 10.677 8.5563 9.837 9.95426 8.61893C10.797 7.8841 11.4756 7.15922 11.9692 6.4642C12.2807 6.02501 12.526 5.59008 12.6945 5.17079C12.8977 4.66906 13 4.17586 13 3.70256C13.0015 3.20083 12.8946 2.71332 12.6855 2.25423ZM6.50074 9.80431C6.50074 9.80431 1.14365 6.56227 1.14365 3.70256C1.14365 2.25423 2.4122 1.08022 3.97719 1.08022C5.0772 1.08022 6.03125 1.66012 6.50074 2.50723C6.97024 1.66012 7.92429 1.08022 9.0243 1.08022C10.5893 1.08022 11.8578 2.25423 11.8578 3.70256C11.8578 6.56227 6.50074 9.80431 6.50074 9.80431Z" fill="#555555"/>
</svg>
