<svg width="18" height="15" viewBox="0 0 18 15" fill="none" xmlns="http://www.w3.org/2000/svg">
<path d="M17.0273 3.26212C16.7655 2.68625 16.3881 2.16441 15.916 1.72579C15.4436 1.28587 14.8866 0.936275 14.2754 0.696009C13.6416 0.445879 12.9617 0.317848 12.2754 0.319349C11.3125 0.319349 10.373 0.569837 9.55664 1.04298C9.36133 1.15617 9.17578 1.28048 9 1.41593C8.82422 1.28048 8.63867 1.15617 8.44336 1.04298C7.62695 0.569837 6.6875 0.319349 5.72461 0.319349C5.03125 0.319349 4.35938 0.445521 3.72461 0.696009C3.11133 0.93722 2.55859 1.28419 2.08398 1.72579C1.61132 2.16391 1.23375 2.68588 0.972656 3.26212C0.701172 3.86144 0.5625 4.49786 0.5625 5.15284C0.5625 5.77072 0.695313 6.41456 0.958984 7.06954C1.17969 7.61691 1.49609 8.18468 1.90039 8.75802C2.54102 9.66534 3.42188 10.6116 4.51563 11.5709C6.32813 13.161 8.12305 14.2595 8.19922 14.304L8.66211 14.586C8.86719 14.7104 9.13086 14.7104 9.33594 14.586L9.79883 14.304C9.875 14.2576 11.668 13.161 13.4824 11.5709C14.5762 10.6116 15.457 9.66534 16.0977 8.75802C16.502 8.18468 16.8203 7.61691 17.0391 7.06954C17.3027 6.41456 17.4355 5.77072 17.4355 5.15284C17.4375 4.49786 17.2988 3.86144 17.0273 3.26212ZM9 13.1184C9 13.1184 2.04688 8.88605 2.04688 5.15284C2.04688 3.26212 3.69336 1.72951 5.72461 1.72951C7.15234 1.72951 8.39063 2.48654 9 3.5924C9.60938 2.48654 10.8477 1.72951 12.2754 1.72951C14.3066 1.72951 15.9531 3.26212 15.9531 5.15284C15.9531 8.88605 9 13.1184 9 13.1184Z" fill="#E25A99"/>
</svg>
