<svg width="30" height="29" viewBox="0 0 30 29" fill="none" xmlns="http://www.w3.org/2000/svg">
<path d="M14.996 9.66461C12.2417 9.66461 9.99393 11.8375 9.99393 14.5C9.99393 17.1625 12.2417 19.3354 14.996 19.3354C17.7503 19.3354 19.998 17.1625 19.998 14.5C19.998 11.8375 17.7503 9.66461 14.996 9.66461ZM29.9983 14.5C29.9983 12.4976 30.0171 10.5134 29.9008 8.51471C29.7844 6.19314 29.2366 4.13275 27.4804 2.4351C25.7205 0.733824 23.5929 0.207844 21.1913 0.0953926C19.1199 -0.0170583 17.0673 0.00107896 14.9997 0.00107896C12.9284 0.00107896 10.8758 -0.0170583 8.80815 0.0953926C6.40658 0.207844 4.27517 0.737451 2.51902 2.4351C0.759114 4.13637 0.215007 6.19314 0.0986802 8.51471C-0.0176462 10.5171 0.00111615 12.5013 0.00111615 14.5C0.00111615 16.4987 -0.0176462 18.4866 0.0986802 20.4853C0.215007 22.8069 0.762867 24.8673 2.51902 26.5649C4.27893 28.2662 6.40658 28.7922 8.80815 28.9046C10.8795 29.0171 12.9321 28.9989 14.9997 28.9989C17.0711 28.9989 19.1237 29.0171 21.1913 28.9046C23.5929 28.7922 25.7243 28.2625 27.4804 26.5649C29.2403 24.8636 29.7844 22.8069 29.9008 20.4853C30.0208 18.4866 29.9983 16.5024 29.9983 14.5ZM14.996 21.9399C10.7369 21.9399 7.29966 18.6172 7.29966 14.5C7.29966 10.3828 10.7369 7.0601 14.996 7.0601C19.255 7.0601 22.6923 10.3828 22.6923 14.5C22.6923 18.6172 19.255 21.9399 14.996 21.9399ZM23.0075 8.49294C22.0131 8.49294 21.2101 7.71667 21.2101 6.75539C21.2101 5.79412 22.0131 5.01784 23.0075 5.01784C24.0019 5.01784 24.8049 5.79412 24.8049 6.75539C24.8052 6.98365 24.7589 7.20972 24.6687 7.42066C24.5785 7.6316 24.4461 7.82326 24.2791 7.98466C24.1122 8.14607 23.9139 8.27404 23.6957 8.36126C23.4775 8.44848 23.2436 8.49323 23.0075 8.49294Z" fill="#D29D4E"/>
</svg>
