<svg width="18" height="18" viewBox="0 0 18 18" fill="none" xmlns="http://www.w3.org/2000/svg">
<path d="M5.43341 12.7133L6.90092 12.29L15.7367 3.34835C15.8064 3.27693 15.8452 3.18096 15.8448 3.08117C15.8443 2.98138 15.8046 2.88578 15.7342 2.81501L15.2051 2.28001C15.1709 2.24488 15.13 2.21691 15.0849 2.19773C15.0398 2.17855 14.9913 2.16856 14.9423 2.16832C14.8932 2.16809 14.8447 2.17763 14.7994 2.19637C14.7541 2.21512 14.7129 2.2427 14.6784 2.27751L5.86592 11.1958L5.43258 12.7125L5.43341 12.7133ZM16.2526 1.22001L16.7817 1.75585C17.5117 2.49501 17.5184 3.68751 16.7951 4.41918L7.69008 13.6342L4.55341 14.5375C4.36191 14.5911 4.15697 14.5666 3.98355 14.4692C3.81013 14.3719 3.68241 14.2097 3.62841 14.0183C3.58823 13.8807 3.58766 13.7346 3.62675 13.5967L4.53925 10.3967L13.6201 1.20585C13.7928 1.03198 13.9983 0.894233 14.2248 0.800641C14.4513 0.70705 14.6941 0.659488 14.9391 0.660729C15.1842 0.66197 15.4265 0.71199 15.652 0.80787C15.8775 0.90375 16.0817 1.04357 16.2526 1.21918V1.22001ZM6.65342 2.18085C7.06675 2.18085 7.40175 2.52001 7.40175 2.93835C7.40241 3.03724 7.38357 3.13529 7.34631 3.22689C7.30904 3.3185 7.25409 3.40186 7.18459 3.47221C7.11509 3.54256 7.03241 3.59852 6.94126 3.6369C6.85012 3.67527 6.75231 3.6953 6.65342 3.69585H3.66008C2.83341 3.69585 2.16341 4.37418 2.16341 5.21001V14.2983C2.16341 15.135 2.83341 15.8133 3.66008 15.8133H12.6401C13.4667 15.8133 14.1376 15.135 14.1376 14.2983V11.2692C14.1376 10.8508 14.4726 10.5117 14.8859 10.5117C15.2992 10.5117 15.6342 10.8508 15.6342 11.27V14.2983C15.6342 15.9717 14.2934 17.3283 12.6401 17.3283H3.66008C2.00675 17.3283 0.666748 15.9717 0.666748 14.2983V5.21001C0.666748 3.53751 2.00675 2.18085 3.66008 2.18085H6.65342Z" fill="#E25A99"/>
</svg>
