<svg width="20" height="20" viewBox="0 0 20 20" fill="none" xmlns="http://www.w3.org/2000/svg">
<path d="M6.43341 13.7133L7.90091 13.29L16.7367 4.34835C16.8064 4.27693 16.8452 4.18096 16.8448 4.08117C16.8443 3.98138 16.8046 3.88578 16.7342 3.81501L16.2051 3.28001C16.1709 3.24488 16.13 3.21691 16.0849 3.19773C16.0398 3.17855 15.9913 3.16856 15.9423 3.16832C15.8932 3.16809 15.8447 3.17763 15.7994 3.19637C15.7541 3.21512 15.7129 3.2427 15.6784 3.27751L6.86592 12.1958L6.43258 13.7125L6.43341 13.7133ZM17.2526 2.22001L17.7817 2.75585C18.5117 3.49501 18.5184 4.68751 17.7951 5.41918L8.69008 14.6342L5.55341 15.5375C5.36191 15.5911 5.15697 15.5666 4.98355 15.4692C4.81013 15.3719 4.68241 15.2097 4.62841 15.0183C4.58823 14.8807 4.58766 14.7346 4.62675 14.5967L5.53925 11.3967L14.6201 2.20585C14.7928 2.03198 14.9983 1.89423 15.2248 1.80064C15.4513 1.70705 15.6941 1.65949 15.9391 1.66073C16.1842 1.66197 16.4265 1.71199 16.652 1.80787C16.8775 1.90375 17.0817 2.04357 17.2526 2.21918V2.22001ZM7.65342 3.18085C8.06675 3.18085 8.40175 3.52001 8.40175 3.93835C8.40241 4.03724 8.38357 4.13529 8.34631 4.22689C8.30904 4.3185 8.25409 4.40186 8.18459 4.47221C8.11509 4.54256 8.03241 4.59852 7.94126 4.6369C7.85012 4.67527 7.75231 4.6953 7.65342 4.69585H4.66008C3.83341 4.69585 3.16341 5.37418 3.16341 6.21001V15.2983C3.16341 16.135 3.83341 16.8133 4.66008 16.8133H13.6401C14.4667 16.8133 15.1376 16.135 15.1376 15.2983V12.2692C15.1376 11.8508 15.4726 11.5117 15.8859 11.5117C16.2992 11.5117 16.6342 11.8508 16.6342 12.27V15.2983C16.6342 16.9717 15.2934 18.3283 13.6401 18.3283H4.66008C3.00675 18.3283 1.66675 16.9717 1.66675 15.2983V6.21001C1.66675 4.53751 3.00675 3.18085 4.66008 3.18085H7.65342V3.18085Z" fill="#E25A99"/>
</svg>
