<svg width="30" height="30" viewBox="0 0 30 30" fill="none" xmlns="http://www.w3.org/2000/svg">
<path d="M17.4045 14.7495L14.0355 13.1775C13.7415 13.041 13.5 13.194 13.5 13.5195V16.4805C13.5 16.806 13.7415 16.959 14.0355 16.8225L17.403 15.2505C17.6985 15.1125 17.6985 14.8875 17.4045 14.7495ZM15 0.599998C7.04701 0.599998 0.600006 7.047 0.600006 15C0.600006 22.953 7.04701 29.4 15 29.4C22.953 29.4 29.4 22.953 29.4 15C29.4 7.047 22.953 0.599998 15 0.599998ZM15 20.85C7.62901 20.85 7.50001 20.1855 7.50001 15C7.50001 9.8145 7.62901 9.15 15 9.15C22.371 9.15 22.5 9.8145 22.5 15C22.5 20.1855 22.371 20.85 15 20.85Z" fill="#E44040"/>
</svg>
